#N canvas 698 58 599 437 10;
#X declare -lib mrpeach;
#X obj 24 94 select 0 1 2 3 4 5 6 7;
#X obj 36 55 s p0;
#X obj 71 55 s p1;
#X obj 107 55 s p2;
#X obj 143 55 s p3;
#X obj 177 55 s p4;
#X obj 212 55 s p5;
#X obj 246 55 s p6;
#X obj 9 20 psrawreceive;
#N canvas 119 95 450 300 sound 0;
#X obj 131 131 t b b b;
#X obj 131 79 bng 15 250 50 0 empty empty empty 17 7 0 10 -262144 -1
-1;
#X msg 131 154 0;
#X obj 131 186 line~;
#X floatatom 163 155 5 0 0 0 - - -;
#X obj 200 130 * 1000;
#X obj 131 47 inlet;
#X obj 200 46 inlet;
#X obj 145 103 bng 15 250 50 0 empty empty empty 17 7 0 10 -262144
-1 -1;
#X floatatom 200 103 5 0 0 0 - - -;
#X text 153 75 comment;
#X obj 257 99 mtof;
#X obj 257 124 osc~;
#X floatatom 257 72 5 0 0 0 - - -;
#X obj 257 46 inlet;
#X obj 242 230 *~;
#X obj 242 256 outlet~;
#X msg 200 156 1;
#X connect 0 0 2 0;
#X connect 0 1 4 0;
#X connect 0 2 17 0;
#X connect 1 0 0 0;
#X connect 2 0 3 0;
#X connect 3 0 15 0;
#X connect 4 0 3 1;
#X connect 5 0 4 0;
#X connect 6 0 1 0;
#X connect 7 0 9 0;
#X connect 7 0 8 0;
#X connect 8 0 0 0;
#X connect 9 0 5 0;
#X connect 11 0 12 0;
#X connect 12 0 15 1;
#X connect 13 0 11 0;
#X connect 14 0 13 0;
#X connect 15 0 16 0;
#X connect 17 0 3 0;
#X restore 373 189 pd sound;
#X msg 395 164 1;
#X obj 373 164 bng 15 250 50 0 empty empty empty 17 7 0 10 -262144
-1 -1;
#N canvas 554 249 450 300 fuzz 1;
#X obj 134 69 inlet~;
#X obj 134 205 outlet~;
#X obj 134 149 clip~ -1 1;
#X obj 210 51 * 10;
#X obj 210 25 inlet;
#X obj 134 114 *~;
#X obj 134 178 /~;
#X obj 210 81 + 0.01;
#X connect 0 0 5 0;
#X connect 2 0 6 0;
#X connect 3 0 7 0;
#X connect 4 0 3 0;
#X connect 5 0 2 0;
#X connect 6 0 1 0;
#X connect 7 0 5 1;
#X connect 7 0 6 1;
#X restore 373 236 pd fuzz;
#N canvas 665 84 450 300 wah 1;
#X obj 196 20 inlet~;
#X obj 199 248 outlet~;
#X obj 199 217 vcf~;
#X obj 256 95 +~ 1;
#X obj 256 121 *~ 0.5;
#X obj 256 148 *~ 1500;
#X obj 256 174 +~ 200;
#X obj 341 170 * 10;
#X obj 340 22 inlet;
#X obj 256 69 osc~ 50;
#X obj 256 20 inlet;
#X obj 256 45 * 15;
#X connect 0 0 2 0;
#X connect 2 0 1 0;
#X connect 3 0 4 0;
#X connect 4 0 5 0;
#X connect 5 0 6 0;
#X connect 6 0 2 1;
#X connect 7 0 2 2;
#X connect 8 0 7 0;
#X connect 9 0 3 0;
#X connect 10 0 11 0;
#X connect 11 0 9 0;
#X restore 373 285 pd wah;
#X obj 372 354 dac~;
#X msg 389 260 1;
#X msg 419 260 0.1;
#X msg 412 213 0.2;
#X msg 425 165 50;
#X connect 8 2 0 0;
#X connect 8 3 1 0;
#X connect 8 4 2 0;
#X connect 8 5 3 0;
#X connect 8 6 4 0;
#X connect 8 7 5 0;
#X connect 8 8 6 0;
#X connect 8 9 7 0;
#X connect 9 0 12 0;
#X connect 10 0 9 1;
#X connect 11 0 9 0;
#X connect 12 0 13 0;
#X connect 13 0 14 0;
#X connect 13 0 14 1;
#X connect 15 0 13 1;
#X connect 16 0 13 2;
#X connect 17 0 12 1;
#X connect 18 0 9 2;
