#N canvas 698 58 599 437 10;
#X declare -lib mrpeach;
#X obj 24 94 select 0 1 2 3 4 5 6 7;
#X obj 36 55 s p0;
#X obj 71 55 s p1;
#X obj 107 55 s p2;
#X obj 143 55 s p3;
#X obj 177 55 s p4;
#X obj 212 55 s p5;
#X obj 246 55 s p6;
#X obj 9 20 psrawreceive;
#X obj 24 187 player;
#X msg 57 161 1.wav;
#X obj 57 135 loadbang;
#X obj 89 306 bng 15 250 50 0 empty empty empty 17 7 0 10 -262144 -1
-1;
#X connect 0 0 9 0;
#X connect 8 2 0 0;
#X connect 8 3 1 0;
#X connect 8 4 2 0;
#X connect 8 5 3 0;
#X connect 8 6 4 0;
#X connect 8 7 5 0;
#X connect 8 8 6 0;
#X connect 8 9 7 0;
#X connect 10 0 9 1;
#X connect 11 0 10 0;
#X connect 12 0 9 0;
