#N canvas 443 239 599 437 10;
#X obj 44 144 select 0 1 2 3 4 5 6 7;
#X obj 61 113 s p0;
#X obj 100 113 s p1;
#X obj 136 113 s p2;
#X obj 172 113 s p3;
#X obj 206 113 s p4;
#X obj 241 113 s p5;
#X obj 275 113 s p6;
#X obj 89 204 loadbang;
#X obj 157 253 player;
#X obj 190 204 loadbang;
#X obj 288 204 loadbang;
#X obj 388 204 loadbang;
#X obj 89 304 loadbang;
#X obj 190 304 loadbang;
#X obj 288 304 loadbang;
#X obj 388 304 loadbang;
#X msg 89 229 65;
#X msg 190 229 67;
#X msg 288 229 69;
#X msg 388 229 70;
#X msg 89 329 72;
#X msg 190 329 74;
#X msg 288 329 76;
#X msg 388 329 77;
#X obj 56 253 player;
#X obj 255 253 player;
#X obj 355 253 player;
#X obj 56 353 player;
#X obj 157 353 player;
#X obj 255 353 player;
#X obj 355 353 player;
#X obj 27 31 r msg;
#X obj 27 68 unpack f f f f f f f f f;
#X connect 0 0 25 0;
#X connect 0 1 9 0;
#X connect 0 2 26 0;
#X connect 0 3 27 0;
#X connect 0 4 28 0;
#X connect 0 5 29 0;
#X connect 0 6 30 0;
#X connect 0 7 31 0;
#X connect 8 0 17 0;
#X connect 10 0 18 0;
#X connect 11 0 19 0;
#X connect 12 0 20 0;
#X connect 13 0 21 0;
#X connect 14 0 22 0;
#X connect 15 0 23 0;
#X connect 16 0 24 0;
#X connect 17 0 25 1;
#X connect 18 0 9 1;
#X connect 19 0 26 1;
#X connect 20 0 27 1;
#X connect 21 0 28 1;
#X connect 22 0 29 1;
#X connect 23 0 30 1;
#X connect 24 0 31 1;
#X connect 32 0 33 0;
#X connect 33 1 0 0;
#X connect 33 2 1 0;
#X connect 33 3 2 0;
#X connect 33 4 3 0;
#X connect 33 5 4 0;
#X connect 33 6 5 0;
#X connect 33 7 6 0;
#X connect 33 8 7 0;
