#N canvas 145 78 599 437 10;
#X declare -lib mrpeach;
#X obj 196 138 player;
#X obj 49 378 dac~ 1;
#X msg 229 114 1.wav;
#X obj 196 115 bng 15 250 50 0 empty empty empty 17 7 0 10 -262144
-1 -1;
#X obj 229 89 loadbang;
#X obj 287 137 player;
#X obj 287 114 bng 15 250 50 0 empty empty empty 17 7 0 10 -262144
-1 -1;
#X obj 320 88 loadbang;
#X obj 381 138 player;
#X obj 381 115 bng 15 250 50 0 empty empty empty 17 7 0 10 -262144
-1 -1;
#X obj 414 89 loadbang;
#X obj 472 139 player;
#X obj 472 116 bng 15 250 50 0 empty empty empty 17 7 0 10 -262144
-1 -1;
#X obj 505 90 loadbang;
#X obj 195 216 player;
#X obj 195 193 bng 15 250 50 0 empty empty empty 17 7 0 10 -262144
-1 -1;
#X obj 228 167 loadbang;
#X obj 286 215 player;
#X obj 286 192 bng 15 250 50 0 empty empty empty 17 7 0 10 -262144
-1 -1;
#X obj 319 166 loadbang;
#X obj 380 216 player;
#X obj 380 193 bng 15 250 50 0 empty empty empty 17 7 0 10 -262144
-1 -1;
#X obj 413 167 loadbang;
#X obj 471 217 player;
#X obj 471 194 bng 15 250 50 0 empty empty empty 17 7 0 10 -262144
-1 -1;
#X obj 504 168 loadbang;
#X msg 320 113 2.wav;
#X msg 414 114 3.wav;
#X msg 505 115 4.wav;
#X msg 228 192 5.wav;
#X msg 319 191 6.wav;
#X msg 413 192 7.wav;
#X msg 504 193 8.wav;
#X obj 200 19 select 0 1 2 3 4 5 6 7;
#X obj 20 21 psrawreceive - - - - - - -;
#X connect 0 0 1 0;
#X connect 2 0 0 1;
#X connect 3 0 0 0;
#X connect 4 0 2 0;
#X connect 6 0 5 0;
#X connect 7 0 26 0;
#X connect 9 0 8 0;
#X connect 10 0 27 0;
#X connect 12 0 11 0;
#X connect 13 0 28 0;
#X connect 15 0 14 0;
#X connect 16 0 29 0;
#X connect 18 0 17 0;
#X connect 19 0 30 0;
#X connect 21 0 20 0;
#X connect 22 0 31 0;
#X connect 24 0 23 0;
#X connect 25 0 32 0;
#X connect 26 0 5 1;
#X connect 27 0 8 1;
#X connect 28 0 11 1;
#X connect 29 0 14 1;
#X connect 30 0 17 1;
#X connect 31 0 20 1;
#X connect 32 0 23 1;
#X connect 33 0 3 0;
#X connect 33 1 6 0;
#X connect 33 2 9 0;
#X connect 33 3 12 0;
#X connect 33 4 15 0;
#X connect 33 5 18 0;
#X connect 33 6 21 0;
#X connect 33 7 24 0;
#X connect 34 2 33 0;
