#N canvas 0 22 749 408 10;
#N canvas 59 223 828 492 sound 0;
#X obj 171 37 inlet;
#X obj 264 42 inlet;
#X obj 397 89 mtof;
#X obj 397 114 osc~;
#X floatatom 397 62 5 0 0 0 - - -;
#X obj 397 36 inlet;
#X obj 382 260 *~;
#X obj 382 286 outlet~;
#X obj 171 117 pack f f;
#X obj 171 142 unpack 0 0;
#X msg 258 142 30;
#X obj 258 117 loadbang;
#X msg 171 68 1;
#X obj 171 92 makenote 100 500;
#X msg 289 141 200;
#X msg 360 140 1000;
#X msg 323 141 0.5;
#X obj 264 67 * 1000;
#N canvas 0 22 977 728 adsr 0;
#X obj 281 445 r \$0-attack;
#X obj 468 298 timer;
#X obj 553 231 r \$0-attack;
#X obj 563 260 r \$0-decay;
#X obj 538 288 +;
#X obj 538 259 f;
#X obj 467 224 t b b;
#X obj 469 391 >= 0;
#X obj 469 346 t f f;
#X obj 427 535 f;
#X obj 442 508 r \$0-release;
#X msg 427 568 0 \$1;
#X obj 569 507 f;
#X obj 569 532 pack f f f;
#X obj 626 504 r \$0-release;
#X obj 375 633 vline~;
#X obj 469 420 sel 0 1;
#X msg 569 561 \$1 \$2 \, 0 \$3 \$2;
#X obj 469 323 expr $f2-$f1;
#X obj 622 344 r \$0-decay;
#X obj 597 368 min;
#X obj 635 366 r \$0-release;
#X obj 597 389 min;
#X text 168 269 [attack \, decay \, sustain];
#X text 480 120 [release];
#X obj 161 296 r \$0-velocity;
#X obj 197 502 pack f f f f f;
#X msg 197 527 \$1 \$2 \, \$3 \$4 \$5;
#X obj 246 396 *;
#X obj 188 351 t f f;
#X obj 677 420 r \$0-sustain;
#X obj 661 399 r \$0-velocity;
#X obj 662 446 *;
#X obj 375 670 outlet~;
#X obj 467 141 r \$0-velocity;
#X obj 467 186 sel 1 0;
#X obj 22 23 inlet velocity;
#X obj 114 23 inlet A;
#X obj 163 23 inlet D;
#X obj 213 24 inlet S;
#X obj 262 24 inlet R;
#X obj 238 322 r \$0-attack;
#X obj 261 370 r \$0-sustain;
#X obj 252 421 r \$0-decay;
#X obj 116 109 s \$0-attack;
#X obj 189 109 s \$0-decay;
#X obj 256 108 s \$0-sustain;
#X obj 336 108 s \$0-release;
#X obj 22 108 s \$0-velocity;
#X text 638 64 attack \, decay \, release = ms;
#X text 636 13 UNITS:;
#X text 635 27 velocity: noteoff = 0;
#X text 640 79 sustain = 0->1;
#X obj 340 58 unpack \$1 \$2 \$3 \$4;
#X obj 341 37 loadbang;
#X obj 22 75 / 127;
#X obj 22 51 clip 0 127;
#X text 694 42 full volume = 127;
#X obj 467 165 > 0;
#X obj 161 320 sel 0;
#X connect 0 0 26 4;
#X connect 1 0 18 0;
#X connect 2 0 5 1;
#X connect 3 0 4 1;
#X connect 4 0 18 1;
#X connect 5 0 4 0;
#X connect 6 0 1 0;
#X connect 6 1 5 0;
#X connect 7 0 16 0;
#X connect 8 0 7 0;
#X connect 8 1 20 0;
#X connect 9 0 11 0;
#X connect 10 0 9 1;
#X connect 11 0 15 0;
#X connect 12 0 13 0;
#X connect 13 0 17 0;
#X connect 14 0 13 2;
#X connect 15 0 33 0;
#X connect 16 0 9 0;
#X connect 16 1 12 0;
#X connect 17 0 15 0;
#X connect 18 0 8 0;
#X connect 19 0 20 1;
#X connect 20 0 22 0;
#X connect 21 0 22 1;
#X connect 22 0 13 1;
#X connect 25 0 59 0;
#X connect 26 0 27 0;
#X connect 27 0 15 0;
#X connect 28 0 26 2;
#X connect 29 0 26 0;
#X connect 29 1 28 0;
#X connect 30 0 32 1;
#X connect 31 0 32 0;
#X connect 32 0 12 1;
#X connect 34 0 58 0;
#X connect 35 0 6 0;
#X connect 35 1 1 1;
#X connect 36 0 56 0;
#X connect 37 0 44 0;
#X connect 38 0 45 0;
#X connect 39 0 46 0;
#X connect 40 0 47 0;
#X connect 41 0 26 1;
#X connect 42 0 28 1;
#X connect 43 0 26 3;
#X connect 53 0 44 0;
#X connect 53 1 45 0;
#X connect 53 2 46 0;
#X connect 53 3 47 0;
#X connect 54 0 53 0;
#X connect 55 0 48 0;
#X connect 56 0 55 0;
#X connect 58 0 35 0;
#X connect 59 1 29 0;
#X restore 228 195 pd adsr;
#X connect 0 0 12 0;
#X connect 1 0 17 0;
#X connect 2 0 3 0;
#X connect 3 0 6 1;
#X connect 4 0 2 0;
#X connect 5 0 4 0;
#X connect 6 0 7 0;
#X connect 8 0 9 0;
#X connect 9 1 18 0;
#X connect 10 0 18 1;
#X connect 11 0 10 0;
#X connect 11 0 14 0;
#X connect 11 0 16 0;
#X connect 11 0 15 0;
#X connect 12 0 13 0;
#X connect 13 0 8 0;
#X connect 13 1 8 1;
#X connect 14 0 18 2;
#X connect 15 0 18 4;
#X connect 16 0 18 3;
#X connect 17 0 13 2;
#X connect 18 0 6 0;
#X restore 140 11 pd sound;
#X obj 140 -14 bng 15 250 50 0 empty empty empty 17 7 0 10 -262144
-1 -1;
#N canvas 554 249 450 300 fuzz 0;
#X obj 134 69 inlet~;
#X obj 134 205 outlet~;
#X obj 134 149 clip~ -1 1;
#X obj 210 51 * 10;
#X obj 210 25 inlet;
#X obj 134 114 *~;
#X obj 134 178 /~;
#X obj 210 81 + 0.01;
#X connect 0 0 5 0;
#X connect 2 0 6 0;
#X connect 3 0 7 0;
#X connect 4 0 3 0;
#X connect 5 0 2 0;
#X connect 6 0 1 0;
#X connect 7 0 5 1;
#X connect 7 0 6 1;
#X restore 140 58 pd fuzz;
#N canvas 665 84 450 300 wah 0;
#X obj 196 20 inlet~;
#X obj 199 248 outlet~;
#X obj 199 217 vcf~;
#X obj 256 95 +~ 1;
#X obj 256 121 *~ 0.5;
#X obj 256 148 *~ 1500;
#X obj 256 174 +~ 200;
#X obj 340 21 inlet;
#X obj 256 69 osc~ 50;
#X obj 256 20 inlet;
#X obj 256 45 * 10;
#X obj 341 170 * 10;
#X connect 0 0 2 0;
#X connect 2 0 1 0;
#X connect 3 0 4 0;
#X connect 4 0 5 0;
#X connect 5 0 6 0;
#X connect 6 0 2 1;
#X connect 7 0 11 0;
#X connect 8 0 3 0;
#X connect 9 0 10 0;
#X connect 10 0 8 0;
#X connect 11 0 2 2;
#X restore 140 107 pd wah;
#X obj 140 151 *~;
#N canvas 0 22 450 300 pan 0;
#X obj 182 133 pan~;
#X obj 182 48 inlet~;
#X obj 238 48 inlet;
#X obj 238 74 * 90;
#X obj 238 99 - 45;
#X obj 182 166 outlet~;
#X obj 231 166 outlet~;
#X connect 0 0 5 0;
#X connect 0 1 6 0;
#X connect 1 0 0 0;
#X connect 2 0 3 0;
#X connect 3 0 4 0;
#X connect 4 0 0 1;
#X restore 140 186 pd pan;
#X obj 140 219 dac~;
#N canvas 0 22 450 300 shift 0;
#X obj 197 53 inlet;
#X obj 182 170 outlet;
#X obj 147 53 inlet;
#X floatatom 147 82 5 0 0 0 - - -;
#X obj 182 136 +;
#X obj 197 82 * 32;
#X obj 197 109 - 16;
#X connect 0 0 5 0;
#X connect 2 0 3 0;
#X connect 3 0 4 1;
#X connect 4 0 1 0;
#X connect 5 0 6 0;
#X connect 6 0 4 0;
#X restore 207 -15 pd shift;
#X obj 207 -42 inlet;
#X obj 140 -41 inlet;
#X obj 305 52 r p0;
#X obj 359 52 r p1;
#X obj 411 52 r p2;
#X obj 464 52 r p3;
#X obj 521 52 r p4;
#X obj 573 52 r p5;
#X obj 625 52 r p6;
#X msg 305 74 set \$1;
#X floatatom 305 96 5 0 0 0 - - -;
#X msg 358 74 set \$1;
#X floatatom 358 96 5 0 0 0 - - -;
#X msg 411 74 set \$1;
#X floatatom 411 96 5 0 0 0 - - -;
#X msg 464 74 set \$1;
#X floatatom 464 96 5 0 0 0 - - -;
#X msg 521 74 set \$1;
#X floatatom 521 96 5 0 0 0 - - -;
#X msg 573 74 set \$1;
#X floatatom 573 96 5 0 0 0 - - -;
#X msg 625 74 set \$1;
#X floatatom 625 96 5 0 0 0 - - -;
#X obj 305 119 s \$0p0;
#X obj 357 120 s \$0p1;
#X obj 411 120 s \$0p2;
#X obj 463 121 s \$0p3;
#X obj 521 121 s \$0p4;
#X obj 573 121 s \$0p5;
#X obj 625 121 s \$0p6;
#X obj 162 -15 r \$0p1;
#X obj 252 -42 r \$0p2;
#X obj 179 34 r \$0p3;
#X obj 156 82 r &0p4;
#X obj 201 82 r \$0p5;
#X obj 155 128 r \$0p0;
#X obj 173 160 r \$0p6;
#X connect 0 0 2 0;
#X connect 1 0 0 0;
#X connect 1 0 18 0;
#X connect 1 0 20 0;
#X connect 1 0 22 0;
#X connect 1 0 24 0;
#X connect 1 0 26 0;
#X connect 1 0 28 0;
#X connect 1 0 30 0;
#X connect 2 0 3 0;
#X connect 3 0 4 0;
#X connect 4 0 5 0;
#X connect 5 0 6 0;
#X connect 5 1 6 1;
#X connect 7 0 0 2;
#X connect 8 0 7 0;
#X connect 9 0 1 0;
#X connect 10 0 17 0;
#X connect 11 0 19 0;
#X connect 12 0 21 0;
#X connect 13 0 23 0;
#X connect 14 0 25 0;
#X connect 15 0 27 0;
#X connect 16 0 29 0;
#X connect 17 0 18 0;
#X connect 18 0 31 0;
#X connect 19 0 20 0;
#X connect 20 0 32 0;
#X connect 21 0 22 0;
#X connect 22 0 33 0;
#X connect 23 0 24 0;
#X connect 24 0 34 0;
#X connect 25 0 26 0;
#X connect 26 0 35 0;
#X connect 27 0 28 0;
#X connect 28 0 36 0;
#X connect 29 0 30 0;
#X connect 30 0 37 0;
#X connect 38 0 0 1;
#X connect 39 0 7 1;
#X connect 40 0 2 1;
#X connect 41 0 3 1;
#X connect 42 0 3 2;
#X connect 43 0 4 1;
#X connect 44 0 5 1;
