#N canvas 749 24 599 437 10;
#X obj 235 104 soundfiler;
#N canvas 0 22 450 300 (subpatch) 0;
#X array data 8426 float 2;
#X coords 0 1 8426 -1 200 140 1;
#X restore 279 188 graph;
#X obj 44 101 bng 15 250 50 0 empty empty empty 17 7 0 10 -262144 -1
-1;
#X obj 161 164 line~;
#X obj 146 194 *~;
#X obj 146 222 hip~ 5;
#X msg 161 137 0.1 100;
#X obj 44 137 tabplay~ data;
#X obj 146 252 outlet~;
#X obj 235 46 inlet;
#X obj 44 48 inlet;
#X obj 235 75 sprintf read -resize %s data;
#X connect 2 0 7 0;
#X connect 2 0 6 0;
#X connect 3 0 4 1;
#X connect 4 0 5 0;
#X connect 5 0 8 0;
#X connect 6 0 3 0;
#X connect 7 0 4 0;
#X connect 9 0 11 0;
#X connect 10 0 2 0;
#X connect 11 0 0 0;
