#N canvas 168 243 511 506 10;
#X declare -lib mrpeach;
#X obj 35 -32 import mrpeach;
#X obj 7 102 bng 15 250 50 0 empty empty empty 17 7 0 10 -262144 -1
-1;
#X obj 53 141 outlet;
#X obj 102 141 outlet;
#X obj 150 141 outlet;
#X obj 199 141 outlet;
#X obj 247 141 outlet;
#X obj 295 141 outlet;
#X obj 342 141 outlet;
#X obj 388 141 outlet;
#X obj 7 141 outlet;
#X obj 35 7 udpreceive 8080;
#X obj 35 38 unpackOSC;
#X obj 35 71 routeOSC /psynth;
#X obj 35 102 unpack 0 0 f f f f f f f;
#X obj 434 141 outlet;
#X connect 1 0 10 0;
#X connect 11 0 12 0;
#X connect 12 0 13 0;
#X connect 13 0 1 0;
#X connect 13 0 14 0;
#X connect 14 0 2 0;
#X connect 14 1 3 0;
#X connect 14 2 4 0;
#X connect 14 3 5 0;
#X connect 14 4 6 0;
#X connect 14 5 7 0;
#X connect 14 6 8 0;
#X connect 14 7 9 0;
#X connect 14 8 15 0;
